<?xml version="1.0" encoding="UTF-8" standalone="no"?>
<!-- Created with Inkscape (http://www.inkscape.org/) -->

<svg
   version="1.1"
   id="svg2"
   width="1587"
   height="2245"
   viewBox="0 0 1587 2245"
   sodipodi:docname="platform.svg"
   inkscape:version="1.2.2 (732a01da63, 2022-12-09)"
   xmlns:inkscape="http://www.inkscape.org/namespaces/inkscape"
   xmlns:sodipodi="http://sodipodi.sourceforge.net/DTD/sodipodi-0.dtd"
   xmlns="http://www.w3.org/2000/svg"
   xmlns:svg="http://www.w3.org/2000/svg">
  <defs
     id="defs6" />
  <sodipodi:namedview
     id="namedview4"
     pagecolor="#ffffff"
     bordercolor="#111111"
     borderopacity="1"
     inkscape:showpageshadow="0"
     inkscape:pageopacity="0"
     inkscape:pagecheckerboard="1"
     inkscape:deskcolor="#d1d1d1"
     showgrid="false"
     inkscape:zoom="0.37282851"
     inkscape:cx="-49.620669"
     inkscape:cy="716.14695"
     inkscape:window-width="1920"
     inkscape:window-height="1017"
     inkscape:window-x="-8"
     inkscape:window-y="-8"
     inkscape:window-maximized="1"
     inkscape:current-layer="g8" />
  <g
     inkscape:groupmode="layer"
     inkscape:label="Image"
     id="g8">
    <path
       style="fill:#1a76d1;stroke:none"
       d="m 1113,160.529 c -8.54,1.971 -15.5,8.932 -17.47,17.471 -4.34,18.811 -0.53,42.683 -0.53,62 v 250 306 78 c 0,10.909 -2.55,24.82 4.53,33.996 7.85,10.16 18.82,10.004 30.47,10.004 h 45 158 c 23.64,0 53.03,4.708 76,-0.9 8.75,-2.137 15.66,-8.284 18.07,-17.1 5.2,-18.965 0.93,-44.35 0.93,-64 V 582 279 203 c 0,-11.194 2.13,-24.618 -5.39,-33.985 C 1415.03,159.578 1404.99,160 1394,160 h -47 -159 -50 c -7.97,0 -17.2,-1.27 -25,0.529 m -937,1.939 c -16.448,3.109 -17,18.048 -17,31.532 v 96 336 83 c 0,10.694 -2.755,25.38 5.214,33.895 C 171.355,750.526 181.53,749 191,749 h 61 206 55 c 5.36,0 16.089,-2.039 20.682,1.028 4.164,2.779 1.416,10.867 1.318,14.972 -0.354,14.863 -1.972,30.234 -3.714,45 -1.407,11.924 -1.147,24.094 -2.71,36 -0.456,3.47 0.406,9.771 -2.894,11.972 C 519.561,862.057 503.257,859 496,859 h -77 c -15.397,0 -32.008,-3.827 -32,16 10e-4,2.552 -0.307,5.429 0.434,7.906 2.564,8.573 16.863,6.094 23.566,6.094 h 72 217 66 c 9.495,0 21.849,2.089 30.996,-0.573 10.506,-3.056 10.147,-25.397 0,-28.623 C 788.166,856.996 776.207,859 767,859 h -64 c -7.074,0 -28.247,3.546 -33.397,-1.603 C 666.517,854.31 667.1,844.191 667,840 c -0.329,-13.822 -1.664,-28.265 -3.286,-42 -1.364,-11.561 -2.225,-23.369 -2.753,-35 -0.159,-3.502 -2.038,-8.496 0.068,-11.682 C 664.08,746.7 677.143,749 682,749 h 62 216 49 c 9.3,0 18.27,0.44 24.35,-8.015 4.79,-6.66 3.65,-15.25 3.65,-22.985 V 672 490 254 196 c 0,-9.278 1.48,-19.479 -5.21,-26.957 C 1020.39,156.319 991.517,162 976,162 H 823 385 245 c -21.946,0 -47.447,-3.607 -69,0.468 m 6.318,28.136 C 186.122,188.732 192.845,190 197,190 h 36 129 459 143 37 c 3.53,0 10.46,-1.301 13.4,1.028 4.35,3.447 1.6,20.733 1.6,25.972 v 76 313 87 c 0,5.256 2.91,25.825 -2.32,28.397 -3.8,1.871 -10.53,0.603 -14.68,0.603 H 963 834 375 232 195 c -3.531,0 -10.457,1.301 -13.397,-1.028 C 177.251,717.525 180,700.239 180,695 V 619 306 219 c 0,-5.257 -2.909,-25.824 2.318,-28.396 m 981.702,48.83 C 1177.31,235.633 1196.16,239 1210,239 h 102 c 10.31,0 24.06,-2.402 33.98,0.434 4.94,1.411 6.91,8.35 2.7,11.824 -3.22,2.658 -8.81,1.742 -12.68,1.742 h -32 -99 c -11.69,0 -31.11,3.77 -41.94,-0.603 -5.93,-2.397 -4.89,-11.292 0.96,-12.963 m -0.96,32 C 1176.16,267.508 1195.31,271 1209,271 h 103 c 10.39,0 23.93,-2.317 33.98,0.318 5.05,1.322 6.74,8.42 2.59,11.824 -3.44,2.812 -9.46,1.858 -13.57,1.858 h -32 -95 c -13.22,0 -31.31,3.227 -43.98,-0.573 -5.65,-1.694 -7.37,-11.072 -0.96,-12.993 M 1322,332.573 c 30.26,-0.01 31.17,46.444 1,47.297 -30.74,0.87 -31.78,-47.287 -1,-47.297 M 1158.05,471.434 C 1171.21,467.543 1190.27,471 1204,471 h 102 c 10.55,0 24.82,-2.524 34.96,0.434 4.94,1.443 6.68,8.358 2.61,11.824 -3.33,2.831 -9.53,1.742 -13.57,1.742 h -32 -95 c -13.28,0 -31.21,3.175 -43.98,-0.434 -6.28,-1.771 -7.97,-11.061 -0.97,-13.132 m -0.94,39.169 C 1168.5,505.875 1189.64,510 1202,510 h 106 c 10.1,0 23.22,-2.241 32.98,0.318 4.79,1.256 6.7,7.707 2.7,11.079 -3.12,2.631 -8.9,1.603 -12.68,1.603 h -33 -96 c -13.33,0 -31.09,3.122 -43.96,-0.318 -5.62,-1.503 -6.47,-9.779 -0.93,-12.079 m 1.91,37.831 C 1172.36,544.666 1191.13,548 1205,548 h 101 c 10.74,0 23.47,-1.881 33.98,0.344 5.4,1.143 8.21,8.035 3.59,12.053 -3.05,2.648 -8.85,1.603 -12.57,1.603 h -31 -101 c -11.46,0 -31.37,3.873 -41.87,-0.742 -6.26,-2.754 -3.82,-11.212 1.89,-12.824 m -0.97,39 C 1171.21,583.543 1190.27,587 1204,587 h 102 c 10.55,0 24.82,-2.524 34.96,0.434 4.94,1.443 6.68,8.358 2.61,11.824 -3.33,2.831 -9.53,1.742 -13.57,1.742 h -32 -95 c -13.28,0 -31.21,3.175 -43.98,-0.434 -6.28,-1.771 -7.97,-11.061 -0.97,-13.132 M 1309,718.301 c 14.68,-2.17 33.23,-1.613 48,-0.13 5.87,0.589 11.76,2.464 14.91,7.844 3.73,6.362 2.09,15.903 2.09,22.985 0,18.57 3.38,40.824 -0.34,59 -1.21,5.894 -6.77,10.857 -12.66,11.786 -15.25,2.405 -32.56,0.239 -48,0.214 -6.68,-0.011 -13.07,-0.9 -16.99,-7.04 -4.22,-6.591 -3.01,-15.53 -3.01,-22.96 0,-18.061 -4.37,-42.776 1.22,-60 2.23,-6.838 7.83,-10.673 14.78,-11.699 M 233,971.424 c -17.407,2.286 -34.241,-2.078 -50,8.124 -22.169,14.351 -22,36.992 -22,60.452 0,30.04 -1,59.94 -1,90 v 313 c 0,51.62 -2.3,103.38 -0.039,155 1.628,37.18 0.039,74.78 0.039,112 v 222 c 0,27.73 1,55.3 1,83 0,16.88 -1.885,34.32 8.221,49 13.304,19.32 30.85,19.66 51.779,21.09 28.186,1.93 56.716,0.91 85,0.91 h 276 89 c 16.413,0 34.853,1.45 51,-1.46 18.14,-3.28 33.212,-17.9 37.844,-35.54 3.388,-12.9 2.156,-26.79 2.156,-40 v -64 c 0,-148.35 1,-296.61 1,-445 0,-123.06 -1,-245.98 -1,-369 v -90 c 0,-17.18 1.033,-35.74 -10.379,-50 C 735.637,971.027 715.151,972 692,972 h -73 c -87.351,0 -174.612,-1 -262,-1 h -81 c -14.085,0 -29.031,-1.41 -43,0.424 m 914,0 c -49.96,6.564 -95.95,19.683 -137,50.476 -120.74,90.56 -143.173,268.36 -48.8,386.1 15.887,19.82 34.659,37.84 55.8,52 22.79,15.27 47.54,28.02 74,35.57 35.91,10.25 73,12.75 110,8.15 35.42,-4.41 69.57,-17.54 100,-35.92 25.94,-15.67 48.87,-36.18 67.8,-59.8 91.05,-113.6 74.08,-285.64 -38.8,-378.39 -24.81,-20.38 -53.59,-35.816 -84,-45.943 -30.47,-10.147 -66.87,-16.463 -99,-12.243 M 361.133,1001.43 C 375.095,997.039 396.335,1001 411,1001 h 113 c 11.11,0 26.208,-2.697 36.891,0.32 5.081,1.43 5.709,11.66 2.367,15.08 -2.819,2.88 -9.607,1.6 -13.258,1.6 H 515 410 c -14.526,0 -33.947,3.43 -47.956,-0.32 -6.213,-1.66 -7.38,-14.21 -0.911,-16.25 M 1149,1004 v 44 l -1.03,16.4 -15.97,1.6 h -47 c 2.11,-14.07 10.95,-29.32 17.25,-42 2.08,-4.19 4.12,-11.14 8.14,-13.84 8.92,-5.97 28.17,-6.15 38.61,-6.16 m 94,62 h -46 l -15.97,-1.6 -1.03,-16.4 v -44 c 10.71,0 29.61,-0.27 38.79,5.94 4.16,2.81 6.38,9.63 8.35,14.06 5.65,12.69 14.64,28.08 15.86,42 m 78,0 h -30 l -12.58,-1.03 -5,-9.97 -10.42,-29 c 15.57,2.78 32.99,17.49 45,27.26 4.6,3.74 10.29,7.39 13,12.74 m -256,-39 -11,27 -5.42,10.97 -11.58,1.03 h -28 c 2.72,-5.38 8.35,-9.07 13,-12.8 11.67,-9.35 28,-23.31 43,-26.2 m -887,944 -1,-89 v -151 -458 l 1,-168 v -42 l 1.603,-13.97 L 201,1048 h 58 225 192 49 l 18.397,1.03 L 745,1061 v 32 134 545 149 36 l -1.603,12.97 L 733,1971 H 705 597 178 m 860,-873 c -1.38,15.81 -8.3,32.44 -11.88,48 -0.95,4.12 -1.07,13.29 -4.68,15.97 -2.75,2.04 -8.22,1.03 -11.44,1.03 -8.77,0 -19.522,-1.66 -28,0.79 -20.866,6.03 -14,39.79 -14,56.21 l -34,-1 c 3.032,-12.74 3.61,-26.13 6.654,-39 4.471,-18.89 12.154,-36.84 21.091,-54 3.857,-7.4 10.543,-23.95 18.555,-27.4 4.775,-2.05 12.568,-0.6 17.7,-0.6 h 40 m 18,64 c 3.01,-15.5 6.94,-30.83 11.29,-46 1.3,-4.54 2.44,-14 6.41,-16.97 2.88,-2.16 8.9,-1.03 12.3,-1.03 h 30 23 c 2.62,0 7.11,-0.75 8.97,1.6 4.05,5.11 1.03,21.99 1.03,28.4 0,7.35 3.57,27.6 -1.03,33.4 -3.13,3.96 -17.3,1.6 -21.97,1.6 h -46 c -7.72,0 -16.57,1.2 -24,-1 m 214,1 h -65 c -5.47,0 -18.99,2.46 -23.4,-1.03 -2.95,-2.34 -1.6,-9.65 -1.6,-12.97 v -36 c 0,-3.48 -1.48,-11.53 1.6,-13.97 5.39,-4.27 23.61,-1.03 30.4,-1.03 h 29 c 3.61,0 9.43,-1.07 12.58,1.03 4.22,2.81 5.14,12.38 6.29,16.97 3.82,15.19 9.45,31.27 10.13,47 m 18,-65 h 44 c 5.29,0 14.09,-1.66 18.82,1.03 6.78,3.86 11.83,16.32 15.49,22.97 11.77,21.42 21.32,44.8 25.61,69 0.95,5.38 7.2,26.16 2.47,29.97 -3.2,2.58 -11.5,1.03 -15.39,1.03 -4.9,0 -16.42,2.12 -20.4,-1.03 -3.2,-2.53 -1.6,-11.34 -1.6,-14.97 0,-11.46 3.22,-27.8 -5.21,-36.91 -12.78,-13.78 -32.99,0.33 -47.48,-6.69 -4.13,-2.01 -4.31,-12.38 -5.11,-16.4 -3.19,-15.96 -9.03,-31.94 -11.2,-48 m -267,88 11,46 10.67,-33 4.84,-11.97 20.49,-1.03 13,46 h 2 l 7.37,-33 4.19,-11.97 17.44,-1.03 14.27,1.03 4.1,11.97 7.63,34 h 1 c 2.38,-11.48 6.55,-22.8 10.03,-34 1.01,-3.28 1.87,-9.78 4.7,-11.97 3.03,-2.36 17.55,-2.32 20.18,0.57 2.61,2.88 3.24,8.77 4.42,12.4 3.44,10.6 8.04,21.98 9.67,33 h 1 c 0.93,-11.4 5.17,-22.9 7.87,-34 0.82,-3.36 0.92,-9.69 3.86,-11.97 5.89,-4.59 25.83,-1.03 33.27,-1.03 l 10,46 c 9.84,-11.27 5.46,-33.84 15.84,-44.4 3.15,-3.19 18.24,-3 20.88,0.72 8.18,11.52 8.51,30.67 14.28,43.68 l 11,-46 h 27 c -6.62,20.69 -12.16,41.98 -17.63,63 -2.37,9.09 -3.76,22.75 -8.8,30.68 -2.52,3.98 -16.49,3.8 -20.06,1.29 -3.4,-2.39 -3.97,-9.27 -5.18,-12.97 -3.9,-11.96 -7.44,-24.03 -11.33,-36 h -1 c -1.01,11.59 -6.57,23.88 -10.03,35 -1.18,3.8 -2.02,10.48 -4.82,13.4 -2.96,3.07 -16.23,3.05 -19.59,0.57 -3.63,-2.68 -4.58,-11.81 -5.68,-15.97 -3.86,-14.64 -8.81,-29.17 -11.88,-44 h -1 l -16,61 h -21 l -15,-51 h -1 l -15,51 h -21 l -16,-61 h -1 c -2.84,13.78 -7.12,27.48 -11,41 -1.51,5.27 -2.21,13.15 -5.3,17.68 -2.64,3.87 -16.57,3.92 -20.14,1.29 -3.29,-2.42 -4.34,-10.23 -5.42,-13.97 -3.33,-11.57 -6.38,-23.95 -11.14,-35 -3.78,11.62 -7.35,23.33 -10.97,35 -1.23,3.95 -1.91,11.42 -5.54,13.97 -3.6,2.53 -17.33,2.67 -19.92,-1.29 -4.91,-7.51 -5.84,-20.08 -8.28,-28.68 -5.87,-20.67 -15.541,-43.59 -17.29,-65 h 26 m 5,178 h -40 c -4.62,0 -12.564,1.51 -16.621,-1.03 -5.911,-3.69 -10.251,-15.77 -12.955,-21.97 -8.609,-19.73 -15.626,-39.69 -19.177,-61 -0.845,-5.07 -6.155,-23.37 -1.643,-26.97 2.923,-2.33 9.878,-1.03 13.396,-1.03 4.32,0 13.852,-1.78 17.397,1.03 2.954,2.34 1.603,9.65 1.603,12.97 0,9.49 -1.951,21.04 4.394,28.98 7.467,9.35 18.899,8.02 29.606,8.02 3.33,0 9.61,-1.17 12.4,1.03 3.19,2.53 2.46,12.16 3.03,15.97 2.19,14.83 5.54,29.34 8.57,44 m 370,-110 c -0.08,28.26 -9.26,57.35 -20.42,83 -3.08,7.08 -8.12,21.86 -14.91,25.97 -4.53,2.75 -13.53,1.03 -18.67,1.03 h -45 l 11,-61 c 14.8,0 38.55,4.82 46.95,-11 5.26,-9.91 2.05,-27.02 2.05,-38 h 39 m -247,110 h -66 c -5.16,0 -19.37,2.47 -23.06,-1.6 -3.18,-3.5 -3.75,-11.89 -4.73,-16.4 -3.01,-13.94 -4.61,-28.01 -7.21,-42 8,-2.36 17.69,-1 26,-1 h 50 c 4.96,0 20.68,-2.55 23.97,1.6 2.69,3.4 1.03,12.28 1.03,16.4 v 43 m 127,-61 -11,61 h -85 v -43 c 0,-4.12 -1.66,-13 1.03,-16.4 3.29,-4.15 19.01,-1.6 23.97,-1.6 h 71 m -220,143 c -22.05,-9.5 -48.18,-29.38 -62,-49 l 29,-1 11.61,1.03 6.25,12.97 15.14,36 m 93,27 c -11.26,-0.01 -32.13,-0.37 -41.67,-6.94 -5.46,-3.75 -9.05,-12.46 -12.32,-18.06 -9.22,-15.78 -19.16,-33.28 -24.01,-51 16.93,-5 40.32,-1 58,-1 4.23,0 16.08,-2.05 18.97,1.6 3.15,3.98 1.03,15.5 1.03,20.4 v 55 m 104,-77 c -4.03,26.89 -27.62,46.91 -35,72 l -38,5 v -57 l 1.6,-18.97 19.4,-1.03 h 52 m 83,1 c -14.84,21.06 -46.86,46.76 -72,54 l 17.2,-39 7.19,-14.97 12.61,-1.03 35,1 m -400,346 c -46.592,3.71 -34,65.47 -34,98 0,12.94 -2.437,28.76 2.478,41 5.259,13.1 17.853,20.41 31.522,21 v 24 c -16.223,0.04 -29.218,10.01 -33.1,26 -2.148,8.84 -0.9,18.95 -0.9,28 v 53 c 0,16.11 -1.819,34.46 13.004,45.21 11.472,8.32 24.606,6.79 37.996,6.79 h 71 283 74 c 15.48,0 29.99,0.56 40.47,-13 7.33,-9.48 6.53,-20.71 6.53,-32 v -63 c 0,-10.9 1.69,-22.96 -3.38,-33 -3.5,-6.94 -9.5,-12.59 -16.62,-15.66 -3.57,-1.54 -10.72,-1.28 -12.97,-4.66 -3.19,-4.79 -1.03,-16.06 -1.03,-21.68 14.22,-0.61 25.95,-7.72 31.66,-21 5.21,-12.11 2.34,-29.04 2.34,-42 0,-32.75 12.66,-93.29 -34,-97 0,-5.52 -2.18,-16.91 1.03,-21.57 2.28,-3.32 9.4,-3.15 12.97,-4.66 7.28,-3.09 13.25,-8.61 16.67,-15.77 4.76,-9.94 3.33,-21.28 3.33,-32 v -61 c 0,-12.96 1.15,-25.26 -7.52,-35.99 C 1410.6,1559.78 1396.26,1560 1382,1560 h -74 -294 -67 c -13.476,0 -26.845,0.03 -36.532,11.09 C 901.42,1581.42 902,1594.15 902,1607 v 61 c 0,10.55 -1.442,22.16 3.124,32 3.484,7.51 9.34,13.29 16.876,16.69 3.565,1.6 10.681,1.41 12.972,4.74 3.205,4.66 1.028,16.05 1.028,21.57 m -2,-160.61 c 10.1,-2.32 22.647,-0.39 33,-0.39 h 68 216 100 c 13.93,0 32.61,-3.28 46,0.57 10.29,2.96 9,14.01 9,22.43 v 66 c 0,7.91 2.34,20.12 -6.04,24.68 -8.02,4.37 -23.96,1.32 -32.96,1.32 h -81 -251 -72 c -9.236,0 -23.384,2.65 -31.96,-1.01 -9.297,-3.96 -7.04,-16.91 -7.04,-24.99 v -67 c 0,-8.5 -0.458,-19.2 10,-21.61 m 41,24.07 c -42.355,7.64 -30.047,74.48 12,66.92 44.56,-8 32.39,-74.92 -12,-66.92 m 103,0 c -42.2,7.62 -30.03,74.47 12,66.92 44.68,-8.02 32.47,-74.94 -12,-66.92 m -98,21.9 c 14.562,-2.6 18.802,20.04 4,22.84 -14.883,2.81 -18.997,-20.16 -4,-22.84 m 103,0 c 14.67,-2.62 18.92,20.33 4,22.87 -14.86,2.51 -18.82,-20.22 -4,-22.87 m 124.02,1.29 c -10.1,3.27 -8.37,17.75 0.98,20.7 11.46,3.61 28.01,0.65 40,0.65 h 88 c 10.55,0 33.3,4.25 41.89,-2.51 6.73,-5.3 5.06,-17.62 -3.89,-19.26 -11.91,-2.18 -25.89,-0.23 -38,-0.23 h -76 c -15.63,0 -38.12,-4.15 -52.98,0.65 M 1372,1720 c 0,4.72 2.37,18.83 -1.6,21.97 -4.69,3.71 -19.55,1.03 -25.4,1.03 h -70 -316 v -23 h 413 m -436,45.3 c 28.38,-4.24 60.283,-0.3 89,-0.3 h 181 127 c 19.69,0 42.67,-3.28 62,0.47 11.81,2.29 11,12.96 11,22.53 v 66 c 0,8.55 2.31,20.84 -7.02,25.43 -8.3,4.08 -21.92,1.57 -30.98,1.57 h -71 -254 -78 c -9.809,0 -25.02,2.84 -33.985,-1.57 C 921.602,1874.79 924,1861.61 924,1853 v -66 c 0,-9.82 0.049,-19.91 12,-21.7 m 40,24.16 c -43.441,7.84 -31.443,74.91 12,67.08 43.33,-7.82 31.08,-74.84 -12,-67.08 m 104,-0.02 c -43.57,6.86 -33.57,73.54 10,67.26 43.64,-6.29 33.27,-74.07 -10,-67.26 m -101.996,22.99 c 14.588,-4.02 21.219,17.51 6.992,21.54 -13.676,3.87 -20.827,-17.72 -6.992,-21.54 m 103.006,0.08 c 14.04,-4.32 21.46,16.45 7.98,21.21 -13.97,4.94 -21.98,-16.89 -7.98,-21.21 m 125.99,0.23 c -9.55,3.7 -8.92,18.1 1,20.83 11.74,3.22 27.83,0.43 40,0.43 h 87 c 10.65,0 34.36,4.4 42.94,-2.43 7.34,-5.84 4.31,-17.89 -4.94,-19.36 -12.41,-1.96 -26.43,-0.21 -39,-0.21 h -78 c -13.87,0 -36.07,-4.27 -49,0.74 M 959,1927 v -24 h 316 74 c 5.3,0 21.67,-2.86 22.85,4.06 0.65,3.82 1.85,16.3 -1.45,18.91 -4.55,3.6 -18.74,1.03 -24.4,1.03 h -69 -318 m -25.996,22.42 C 947.888,1945.67 967.638,1949 983,1949 h 107 209 66 c 10.04,0 22.2,-1.87 32,0.39 10.96,2.54 9,15.05 9,23.61 v 66 c 0,8.23 1.91,19.27 -7,23.68 -8.7,4.31 -24.43,1.32 -34,1.32 h -81 -248 -72 c -9.35,0 -23.269,2.57 -31.996,-1.01 C 922.625,2059.14 924,2048.27 924,2040 v -67 c 0,-8.45 -1.693,-20.88 9.004,-23.58 M 979,1972.43 c -45.657,6.01 -36.688,73.86 9,67.27 41.72,-6.01 32.5,-72.73 -9,-67.27 m 103,0 c -45.73,6.02 -36.52,72.91 9,67.39 41.87,-5.08 32.7,-72.88 -9,-67.39 m -639,16.87 c 15.053,-2.22 42.534,-4.16 52.351,9.7 4.919,6.95 3.649,15.96 3.649,24 0,18.1 2.335,39.34 -21,42.7 -14.106,2.03 -40.83,3.98 -50.362,-8.74 -5.535,-7.39 -4.638,-16.28 -4.638,-24.96 0,-17.13 -2.484,-39.38 20,-42.7 m 535.004,6.21 c 14.867,-4.5 21.996,17.67 6.995,21.92 -13.9,3.93 -21.02,-17.67 -6.995,-21.92 m 102.996,0 c 15.04,-4.55 22.16,17.97 7,22.06 -13.72,3.7 -20.92,-17.84 -7,-22.06 m 128,0.02 c -10.03,2.45 -12.36,16.71 -2,20.73 10.44,4.04 27.83,0.74 39,0.74 h 90 c 10.36,0 33.24,4.28 41.89,-1.74 6.12,-4.26 5.19,-14.46 -0.93,-18.17 -6.04,-3.66 -15.21,-2.09 -21.96,-2.09 h -99 c -14.6,0 -32.81,-2.93 -47,0.53 m -761.999,9.12 c -11.635,3.67 -12.922,31.67 -6.487,40.31 6.037,8.1 24.569,8.03 33.486,5.24 12.38,-3.89 14.538,-31.67 7.347,-41.1 -5.668,-7.43 -26.042,-7.06 -34.346,-4.45 z"
       id="path188" />
  </g>
</svg>
